<svg width="32" height="32" viewBox="0 0 32 32" fill="none" xmlns="http://www.w3.org/2000/svg">
<circle cx="16" cy="16" r="16" fill="#2E68FF"/>
<g clip-path="url(#clip0_4_87)">
<path d="M23.2489 10.2221C23.234 10.1085 23.178 10.0043 23.0916 9.92908C23.0051 9.85389 22.8942 9.81292 22.7797 9.81389H20.1944V8.87551C20.1944 7.84766 19.7861 6.86191 19.0593 6.13511C18.3325 5.40831 17.3467 5 16.3189 5C15.2911 5 14.3053 5.40831 13.5785 6.13511C12.8517 6.86191 12.4434 7.84766 12.4434 8.87551V9.81389H9.85348C9.73892 9.81292 9.62796 9.85389 9.54154 9.92908C9.45511 10.0043 9.39918 10.1085 9.38429 10.2221L7.64359 23.4251C7.63473 23.4935 7.64107 23.563 7.66216 23.6287C7.68325 23.6944 7.71856 23.7547 7.76558 23.8051C7.96264 24.0163 8.17847 24.2321 8.41307 24.4432C8.49911 24.5215 8.61114 24.5649 8.72742 24.5652H23.9104C24.0267 24.5649 24.1387 24.5215 24.2248 24.4432C24.4547 24.2321 24.6939 24.0163 24.8722 23.8051C24.9193 23.7547 24.9545 23.6944 24.9757 23.6287C24.9967 23.563 25.0031 23.4935 24.9942 23.4251L23.2489 10.2221ZM13.3959 8.86613C13.3959 8.08715 13.7053 7.34008 14.2561 6.78926C14.8069 6.23844 15.554 5.929 16.333 5.929C17.1119 5.929 17.859 6.23844 18.4098 6.78926C18.9607 7.34008 19.2701 8.08715 19.2701 8.86613V9.80451H13.3818L13.3959 8.86613ZM23.718 23.6269H8.91041L8.60074 23.3266L10.2617 10.7523H22.3715L24.0324 23.3266L23.718 23.6269Z" fill="white"/>
</g>
<defs>
<clipPath id="clip0_4_87">
<rect width="18" height="19.5652" fill="white" transform="translate(7 5)"/>
</clipPath>
</defs>
</svg>
